# xmcd
#
# Track frame offsets: 
#        150
#        9489
#        56322
#        85633
#        121097
#        143684
#        205502
#        242896
#        252388
#        253939
#        259480
#        263190
#        268896
#        279113
#        286511
#        301914
#
# Disc length: 4062 seconds
#
# Revision: 0
# Processed by: cddbd v1.5.2PL0 Copyright (c) Steve Scherf et al.
# Submitted via: ExactAudioCopy v1.2
#
DISCID=db0fdc10
DTITLE=Buddy Guy and Junior Wells - The Library, Springfield [CD1]
DYEAR=1989
DGENRE=Blues
TTITLE0=Introduction
TTITLE1=All Your Love
TTITLE2=Sweet Little Angel
TTITLE3=Crazy About You - I Just Wanna Make Love To You
TTITLE4=The Things I Used To Do
TTITLE5=Knock On Wood
TTITLE6=Any Way You Look At It
TTITLE7=banter - Snippets
TTITLE8=Sunshine Of Your Love
TTITLE9=Junior false introduction
TTITLE10=Marvin Gaye snippet
TTITLE11=Going Down
TTITLE12=Fever
TTITLE13=Snippets II
TTITLE14=Hoochie Coochie Man
TTITLE15=outro
EXTD=
EXTT0=
EXTT1=
EXTT2=
EXTT3=
EXTT4=
EXTT5=
EXTT6=
EXTT7=
EXTT8=
EXTT9=
EXTT10=
EXTT11=
EXTT12=
EXTT13=
EXTT14=
EXTT15=
PLAYORDER=
